<svg xmlns="http://www.w3.org/2000/svg" width="98" height="32" viewBox="0 0 408 144" version="1.1" role="img" aria-label="Air by Lexvor">
	<path d="M 0 72.002 L 0 144.005 204.250 143.752 L 408.500 143.500 408.757 71.750 L 409.013 0 204.507 0 L 0 0 0 72.002 M 0.474 72.500 C 0.474 112.100, 0.598 128.154, 0.750 108.176 C 0.901 88.198, 0.901 55.798, 0.750 36.176 C 0.598 16.554, 0.474 32.900, 0.474 72.500 M 8 64 C 8 119.333, 8.024 120, 10 120 C 11.778 120, 12 119.333, 12 114 C 12 108.667, 12.222 108, 14 108 C 15.778 108, 16 107.333, 16 102 C 16 96.667, 16.222 96, 18 96 C 19.667 96, 20 95.333, 20 92 C 20 88.667, 20.333 88, 22 88 C 23.778 88, 24 87.333, 24 82 C 24 76.667, 24.222 76, 26 76 C 27.778 76, 28 75.333, 28 70 C 28 64.667, 28.222 64, 30 64 C 31.778 64, 32 63.333, 32 58 C 32 52.667, 32.222 52, 34 52 C 35.778 52, 36 51.333, 36 46 C 36 40.667, 36.222 40, 38 40 C 39.778 40, 40 39.333, 40 34 C 40 28.667, 40.222 28, 42 28 C 43.667 28, 44 27.333, 44 24 C 44 20.667, 44.333 20, 46 20 C 47.778 20, 48 19.333, 48 14 L 48 8 28 8 L 8 8 8 64 M 92 14 C 92 19.333, 92.222 20, 94 20 C 95.778 20, 96 20.667, 96 26 C 96 31.333, 96.222 32, 98 32 C 99.778 32, 100 32.667, 100 38 C 100 43.333, 100.222 44, 102 44 C 103.778 44, 104 44.667, 104 50 C 104 55.333, 104.222 56, 106 56 C 107.778 56, 108 56.667, 108 62 C 108 67.333, 108.222 68, 110 68 C 111.667 68, 112 68.667, 112 72 C 112 75.333, 112.333 76, 114 76 C 115.778 76, 116 76.667, 116 82 C 116 87.333, 116.222 88, 118 88 C 119.933 88, 120 87.333, 120 68 L 120 48 134 48 L 148 48 148 90 L 148 132 122 132 L 96 132 96 126 C 96 120.667, 95.778 120, 94 120 C 92.333 120, 92 119.333, 92 116 L 92 112 68 112 L 44 112 44 118 C 44 123.333, 43.778 124, 42 124 C 40.333 124, 40 124.667, 40 128 L 40 132 24 132 C 8.667 132, 8 132.083, 8 134 C 8 135.990, 8.667 136, 144 136 C 279.333 136, 280 135.990, 280 134 C 280 132.333, 279.333 132, 276 132 C 272.667 132, 272 131.667, 272 130 C 272 128.667, 271.333 128, 270 128 C 268.667 128, 268 127.333, 268 126 C 268 124.667, 267.333 124, 266 124 C 264.083 124, 264 123.333, 264 108 C 264 92.667, 264.083 92, 266 92 C 267.667 92, 268 91.333, 268 88 C 268 84.667, 268.333 84, 270 84 C 271.333 84, 272 83.333, 272 82 C 272 80.667, 272.667 80, 274 80 C 275.667 80, 276 79.333, 276 76 C 276 72.667, 276.333 72, 278 72 C 279.667 72, 280 71.333, 280 68 C 280 64.667, 280.333 64, 282 64 C 283.667 64, 284 63.333, 284 60 C 284 56.667, 284.333 56, 286 56 C 287.333 56, 288 55.333, 288 54 C 288 52.667, 288.667 52, 290 52 C 291.667 52, 292 51.333, 292 48 C 292 44.667, 292.333 44, 294 44 C 295.667 44, 296 43.333, 296 40 C 296 36.667, 296.333 36, 298 36 C 299.667 36, 300 35.333, 300 32 C 300 28.667, 300.333 28, 302 28 C 303.333 28, 304 27.333, 304 26 C 304 24.667, 304.667 24, 306 24 C 307.667 24, 308 23.333, 308 20 C 308 16.667, 308.333 16, 310 16 C 311.333 16, 312 15.333, 312 14 C 312 12.333, 312.667 12, 316 12 C 319.333 12, 320 11.667, 320 10 C 320 8.028, 319.333 8, 272 8 C 224.667 8, 224 8.028, 224 10 C 224 11.667, 224.667 12, 228 12 C 231.333 12, 232 12.333, 232 14 C 232 15.667, 232.667 16, 236 16 C 239.333 16, 240 16.333, 240 18 C 240 19.333, 240.667 20, 242 20 C 243.667 20, 244 20.667, 244 24 C 244 27.333, 244.333 28, 246 28 C 247.333 28, 248 28.667, 248 30 C 248 31.333, 248.667 32, 250 32 C 251.917 32, 252 32.667, 252 48 C 252 63.333, 251.917 64, 250 64 C 248.333 64, 248 64.667, 248 68 C 248 71.333, 247.667 72, 246 72 C 244.667 72, 244 72.667, 244 74 C 244 75.333, 243.333 76, 242 76 C 240.667 76, 240 76.667, 240 78 C 240 79.333, 239.333 80, 238 80 C 236.667 80, 236 80.667, 236 82 C 236 83.667, 235.333 84, 232 84 C 228.667 84, 228 84.333, 228 86 C 228 87.333, 228.667 88, 230 88 C 231.667 88, 232 88.667, 232 92 C 232 95.333, 232.333 96, 234 96 C 235.333 96, 236 96.667, 236 98 C 236 99.333, 236.667 100, 238 100 C 239.667 100, 240 100.667, 240 104 C 240 107.333, 240.333 108, 242 108 C 243.667 108, 244 108.667, 244 112 C 244 115.333, 244.333 116, 246 116 C 247.333 116, 248 116.667, 248 118 C 248 119.333, 248.667 120, 250 120 C 251.667 120, 252 120.667, 252 124 C 252 127.333, 252.333 128, 254 128 C 255.333 128, 256 128.667, 256 130 C 256 131.926, 255.333 132, 238 132 C 220.667 132, 220 131.926, 220 130 C 220 128.667, 219.333 128, 218 128 C 216.333 128, 216 127.333, 216 124 C 216 120.667, 215.667 120, 214 120 C 212.333 120, 212 119.333, 212 116 C 212 112.667, 211.667 112, 210 112 C 208.333 112, 208 111.333, 208 108 C 208 104.667, 207.667 104, 206 104 C 204.667 104, 204 103.333, 204 102 C 204 100.667, 203.333 100, 202 100 C 200.333 100, 200 99.333, 200 96 C 200 92.667, 199.667 92, 198 92 C 196.667 92, 196 91.333, 196 90 C 196 88.333, 195.333 88, 192 88 L 188 88 188 110 L 188 132 172 132 L 156 132 156 70 L 156 8 152 8 L 148 8 148 22 L 148 36 134 36 L 120 36 120 22 L 120 8 106 8 L 92 8 92 14 M 344 10 C 344 11.667, 344.667 12, 348 12 C 351.333 12, 352 12.333, 352 14 C 352 15.333, 352.667 16, 354 16 C 355.667 16, 356 16.667, 356 20 C 356 23.333, 356.333 24, 358 24 C 359.333 24, 360 24.667, 360 26 C 360 27.333, 360.667 28, 362 28 C 363.667 28, 364 28.667, 364 32 C 364 35.333, 364.333 36, 366 36 C 367.667 36, 368 36.667, 368 40 C 368 43.333, 368.333 44, 370 44 C 371.667 44, 372 44.667, 372 48 C 372 51.333, 372.333 52, 374 52 C 375.333 52, 376 52.667, 376 54 C 376 55.333, 376.667 56, 378 56 C 379.667 56, 380 56.667, 380 60 C 380 63.333, 380.333 64, 382 64 C 383.667 64, 384 64.667, 384 68 C 384 71.333, 384.333 72, 386 72 C 387.667 72, 388 72.667, 388 76 C 388 79.333, 388.333 80, 390 80 C 391.333 80, 392 80.667, 392 82 C 392 83.333, 392.667 84, 394 84 C 395.667 84, 396 84.667, 396 88 C 396 91.333, 396.333 92, 398 92 C 399.968 92, 400 91.333, 400 50 L 400 8 372 8 C 344.667 8, 344 8.048, 344 10 M 324 26 C 324 27.333, 323.333 28, 322 28 C 320.333 28, 320 28.667, 320 32 C 320 35.333, 319.667 36, 318 36 C 316.667 36, 316 36.667, 316 38 C 316 39.333, 315.333 40, 314 40 C 312.333 40, 312 40.667, 312 44 C 312 47.333, 311.667 48, 310 48 C 308.333 48, 308 48.667, 308 52 C 308 55.333, 307.667 56, 306 56 C 304.333 56, 304 56.667, 304 60 C 304 63.333, 303.667 64, 302 64 C 300.667 64, 300 64.667, 300 66 C 300 67.333, 299.333 68, 298 68 C 296.333 68, 296 68.667, 296 72 C 296 75.333, 295.667 76, 294 76 C 292.333 76, 292 76.667, 292 80 C 292 83.333, 292.333 84, 294 84 C 295.333 84, 296 83.333, 296 82 C 296 80.667, 296.667 80, 298 80 C 299.333 80, 300 79.333, 300 78 C 300 76.667, 300.667 76, 302 76 C 303.333 76, 304 75.333, 304 74 C 304 72.333, 304.667 72, 308 72 C 311.333 72, 312 71.667, 312 70 C 312 68.667, 312.667 68, 314 68 C 315.333 68, 316 67.333, 316 66 C 316 64.667, 316.667 64, 318 64 C 319.333 64, 320 63.333, 320 62 C 320 60.333, 320.667 60, 324 60 C 327.333 60, 328 59.667, 328 58 C 328 56.333, 328.667 56, 332 56 C 335.333 56, 336 55.667, 336 54 C 336 52.133, 336.667 52, 346 52 C 355.333 52, 356 51.867, 356 50 C 356 48.667, 355.333 48, 354 48 C 352.333 48, 352 47.333, 352 44 C 352 40.667, 351.667 40, 350 40 C 348.667 40, 348 39.333, 348 38 C 348 36.667, 347.333 36, 346 36 C 344.333 36, 344 35.333, 344 32 C 344 28.667, 343.667 28, 342 28 C 340.667 28, 340 27.333, 340 26 C 340 24.167, 339.333 24, 332 24 C 324.667 24, 324 24.167, 324 26 M 188 50 L 188 64 202 64 C 215.333 64, 216 63.905, 216 62 C 216 60.667, 216.667 60, 218 60 C 219.833 60, 220 59.333, 220 52 C 220 44.667, 219.833 44, 218 44 C 216.667 44, 216 43.333, 216 42 C 216 40.667, 215.333 40, 214 40 C 212.667 40, 212 39.333, 212 38 C 212 36.111, 211.333 36, 200 36 L 188 36 188 50 M 68 50 C 68 51.333, 67.333 52, 66 52 C 64.222 52, 64 52.667, 64 58 C 64 63.333, 63.778 64, 62 64 C 60.222 64, 60 64.667, 60 70 C 60 75.333, 59.778 76, 58 76 C 56.333 76, 56 76.667, 56 80 L 56 84 68 84 L 80 84 80 78 C 80 72.667, 79.778 72, 78 72 C 76.222 72, 76 71.333, 76 66 C 76 60.667, 75.778 60, 74 60 C 72.222 60, 72 59.333, 72 54 C 72 48.667, 71.778 48, 70 48 C 68.667 48, 68 48.667, 68 50 M 340 70 C 340 71.667, 339.333 72, 336 72 C 332.667 72, 332 72.333, 332 74 C 332 75.333, 331.333 76, 330 76 C 328.667 76, 328 76.667, 328 78 C 328 79.667, 327.333 80, 324 80 C 320.667 80, 320 80.333, 320 82 C 320 83.333, 319.333 84, 318 84 C 316.667 84, 316 84.667, 316 86 C 316 87.333, 315.333 88, 314 88 C 312.667 88, 312 88.667, 312 90 C 312 91.667, 311.333 92, 308 92 C 304.667 92, 304 92.333, 304 94 C 304 95.333, 303.333 96, 302 96 C 300.667 96, 300 96.667, 300 98 C 300 99.333, 299.333 100, 298 100 C 296.667 100, 296 100.667, 296 102 C 296 103.667, 295.333 104, 292 104 C 288.667 104, 288 104.333, 288 106 C 288 107.333, 287.333 108, 286 108 C 284.667 108, 284 108.667, 284 110 C 284 111.333, 283.333 112, 282 112 C 280.667 112, 280 112.667, 280 114 C 280 115.333, 280.667 116, 282 116 C 283.333 116, 284 116.667, 284 118 C 284 119.778, 284.667 120, 290 120 C 295.333 120, 296 119.778, 296 118 C 296 116.667, 296.667 116, 298 116 C 299.333 116, 300 115.333, 300 114 C 300 112.667, 300.667 112, 302 112 C 303.333 112, 304 111.333, 304 110 C 304 108.333, 304.667 108, 308 108 C 311.333 108, 312 107.667, 312 106 C 312 104.667, 312.667 104, 314 104 C 315.333 104, 316 103.333, 316 102 C 316 100.333, 316.667 100, 320 100 C 323.333 100, 324 99.667, 324 98 C 324 96.133, 324.667 96, 334 96 C 343.333 96, 344 96.133, 344 98 C 344 99.333, 344.667 100, 346 100 C 347.333 100, 348 100.667, 348 102 C 348 103.333, 348.667 104, 350 104 C 351.333 104, 352 104.667, 352 106 C 352 107.333, 352.667 108, 354 108 C 355.333 108, 356 108.667, 356 110 C 356 111.667, 356.667 112, 360 112 C 363.333 112, 364 112.333, 364 114 C 364 115.333, 364.667 116, 366 116 C 367.333 116, 368 116.667, 368 118 C 368 119.778, 368.667 120, 374 120 C 379.333 120, 380 119.778, 380 118 C 380 116.667, 380.667 116, 382 116 C 383.667 116, 384 115.333, 384 112 C 384 108.667, 384.333 108, 386 108 C 387.333 108, 388 107.333, 388 106 C 388 104.667, 387.333 104, 386 104 C 384.333 104, 384 103.333, 384 100 C 384 96.667, 383.667 96, 382 96 C 380.667 96, 380 95.333, 380 94 C 380 92.667, 379.333 92, 378 92 C 376.333 92, 376 91.333, 376 88 C 376 84.667, 375.667 84, 374 84 C 372.333 84, 372 83.333, 372 80 C 372 76.667, 371.667 76, 370 76 C 368.667 76, 368 75.333, 368 74 C 368 72.667, 367.333 72, 366 72 C 364.667 72, 364 71.333, 364 70 C 364 68.111, 363.333 68, 352 68 C 340.667 68, 340 68.111, 340 70 M 328 114 C 328 115.667, 327.333 116, 324 116 C 320.667 116, 320 116.333, 320 118 C 320 119.333, 319.333 120, 318 120 C 316.667 120, 316 120.667, 316 122 C 316 123.333, 315.333 124, 314 124 C 312.667 124, 312 124.667, 312 126 C 312 127.333, 311.333 128, 310 128 C 308.667 128, 308 128.667, 308 130 C 308 131.667, 307.333 132, 304 132 C 300.667 132, 300 132.333, 300 134 C 300 135.958, 300.667 136, 332 136 C 363.333 136, 364 135.958, 364 134 C 364 132.333, 363.333 132, 360 132 C 356.667 132, 356 131.667, 356 130 C 356 128.667, 355.333 128, 354 128 C 352.667 128, 352 127.333, 352 126 C 352 124.667, 351.333 124, 350 124 C 348.667 124, 348 123.333, 348 122 C 348 120.667, 347.333 120, 346 120 C 344.667 120, 344 119.333, 344 118 C 344 116.333, 343.333 116, 340 116 C 336.667 116, 336 115.667, 336 114 C 336 112.333, 335.333 112, 332 112 C 328.667 112, 328 112.333, 328 114 M 396 124 C 396 127.333, 395.667 128, 394 128 C 392.667 128, 392 128.667, 392 130 C 392 131.667, 391.333 132, 388 132 C 384.667 132, 384 132.333, 384 134 C 384 135.833, 384.667 136, 392 136 L 400 136 400 128 C 400 120.667, 399.833 120, 398 120 C 396.333 120, 396 120.667, 396 124" stroke="none" fill="#74756f" fill-rule="evenodd"/>
</svg>