<svg width="238" height="56" viewBox="0 0 238 56" fill="none" xmlns="http://www.w3.org/2000/svg">
    <g clip-path="url(#clip0_8079_1840)">
        <path d="M78.2412 15.3371C78.134 16.8436 77.5863 18.0293 76.5981 18.8961C75.6098 19.7619 74.3075 20.1944 72.6912 20.1944C70.9244 20.1944 69.5325 19.5902 68.5202 18.3811C67.5071 17.1729 67 15.5135 67 13.4038V12.5474C67 11.2013 67.2337 10.0146 67.701 8.98842C68.1684 7.96314 68.8361 7.17518 69.7034 6.62736C70.5716 6.0786 71.5801 5.80469 72.73 5.80469C74.3205 5.80469 75.6024 6.23807 76.575 7.10388C77.5466 7.96877 78.1082 9.18448 78.2606 10.7491H75.4195C75.3503 9.84486 75.1018 9.18917 74.676 8.78205C74.2493 8.37494 73.601 8.17138 72.73 8.17138C71.7824 8.17138 71.074 8.51565 70.6039 9.20511C70.1329 9.89458 69.8918 10.964 69.8789 12.4132V13.4714C69.8789 14.9844 70.1051 16.0904 70.5559 16.7892C71.0084 17.4881 71.7196 17.838 72.6922 17.838C73.5696 17.838 74.2244 17.6344 74.6567 17.2273C75.0898 16.8202 75.3374 16.1898 75.4002 15.3371H78.2412ZM92.9116 13.3175C92.9116 14.6964 92.6715 15.9047 92.1912 16.9431C91.7119 17.9824 91.0257 18.7835 90.1316 19.3482C89.2385 19.912 88.2142 20.1944 87.0588 20.1944C85.9163 20.1944 84.8966 19.9158 83.9998 19.3576C83.1039 18.7995 82.4084 18.0031 81.9162 16.9675C81.4239 15.9319 81.1745 14.7405 81.1681 13.3935V12.7012C81.1681 11.3223 81.4128 10.1094 81.9023 9.06159C82.3918 8.01285 83.0827 7.20801 83.9767 6.64612C84.8698 6.08516 85.8913 5.80469 87.0403 5.80469C88.1893 5.80469 89.2108 6.0861 90.1039 6.64612C90.997 7.20801 91.6888 8.01285 92.1774 9.06065C92.6669 10.1094 92.9116 11.3195 92.9116 12.6918V13.3175ZM90.0328 12.6825C90.0328 11.2135 89.7742 10.0981 89.257 9.33456C88.7388 8.57193 87.9999 8.19015 87.0403 8.19015C86.0862 8.19015 85.351 8.56724 84.8329 9.32049C84.3157 10.0737 84.0534 11.1778 84.0478 12.6346V13.3175C84.0478 14.7471 84.3064 15.8568 84.8237 16.6448C85.3409 17.4337 86.0862 17.8286 87.0588 17.8286C88.0119 17.8286 88.7444 17.4487 89.257 16.6889C89.7677 15.929 90.0263 14.8212 90.0328 13.3654V12.6825ZM99.4738 20.0021H96.6328V5.99699H99.4738V20.0021ZM114.798 20.0021H111.956L106.426 10.7876V20.0021H103.585V5.99699H106.426L111.966 15.2311V5.99699H114.798V20.0021ZM128.863 8.3346H124.639V20.0021H121.798V8.3346H117.631V5.99699H128.863V8.3346ZM140.256 13.9329H134.802V17.6841H141.203V20.0021H131.96V5.99699H141.185V8.3346H134.802V11.6722H140.256V13.9329ZM147.189 17.6841H153.222V20.0021H144.348V5.99699H147.189V17.6841ZM164.625 13.9319H159.17V17.6841H165.571V20.0021H156.329V5.99699H165.553V8.3346H159.17V11.6722H164.625V13.9319ZM179.627 18.232C179.115 18.8539 178.392 19.337 177.457 19.6794C176.523 20.0227 175.488 20.1953 174.351 20.1953C173.158 20.1953 172.111 19.9298 171.212 19.4008C170.312 18.8717 169.618 18.1044 169.128 17.0969C168.639 16.0904 168.388 14.9075 168.375 13.5483V12.5952C168.375 11.1975 168.607 9.98745 169.072 8.96497C169.535 7.9425 170.205 7.15923 171.079 6.61798C171.953 6.07578 172.978 5.80469 174.153 5.80469C175.787 5.80469 177.067 6.20054 177.988 6.9932C178.91 7.78491 179.456 8.93777 179.627 10.4508H176.861C176.735 9.64881 176.455 9.06253 176.023 8.69012C175.591 8.31866 174.995 8.13292 174.238 8.13292C173.271 8.13292 172.536 8.50158 172.03 9.23888C171.526 9.97619 171.27 11.0728 171.264 12.5286V13.4226C171.264 14.8916 171.539 16.0003 172.087 16.7508C172.637 17.5012 173.442 17.8764 174.503 17.8764C175.569 17.8764 176.331 17.6457 176.785 17.1842V14.7696H174.2V12.644H179.627V18.232ZM188.51 14.8756H186.247V20.0021H183.405V5.99699H188.529C190.158 5.99699 191.415 6.36564 192.298 7.10388C193.182 7.84119 193.624 8.88242 193.624 10.2295C193.624 11.1853 193.421 11.9817 193.013 12.6196C192.606 13.2575 191.988 13.7659 191.162 14.1439L194.145 19.867V20.0021H191.095L188.51 14.8756ZM186.247 12.538H188.538C189.252 12.538 189.804 12.3532 190.196 11.9846C190.587 11.6159 190.783 11.1084 190.783 10.4602C190.783 9.79984 190.598 9.28016 190.229 8.90212C189.859 8.52409 189.293 8.3346 188.529 8.3346H186.246L186.247 12.538ZM205.046 17.1157H200.064L199.118 20.0021H196.096L201.23 5.99699H203.862L209.023 20.0021H206.003L205.046 17.1157ZM200.832 14.7799H204.279L202.546 9.53625L200.832 14.7799ZM214.63 15.0679V20.0021H211.789V5.99699H217.168C218.204 5.99699 219.114 6.18929 219.9 6.57483C220.687 6.95943 221.291 7.50537 221.714 8.21453C222.137 8.92276 222.349 9.72948 222.349 10.6338C222.349 12.0061 221.887 13.0877 220.962 13.8794C220.036 14.6721 218.756 15.0679 217.121 15.0679H214.63ZM214.63 12.7303H217.168C217.92 12.7303 218.493 12.5511 218.887 12.1919C219.283 11.8326 219.479 11.3195 219.479 10.6535C219.479 9.96681 219.281 9.41148 218.883 8.98842C218.485 8.5663 217.936 8.34774 217.235 8.3346H214.63V12.7303ZM237 20.0021H234.159V14.0004H228.619V20.0021H225.777V5.99699H228.619V11.6722H234.159V5.99699H237V20.0021Z" fill="#FABC2C"/>
        <path d="M35.0795 40.7481L24.9941 45.0827V44.6492C23.0494 45.1414 20.8952 45.425 18.8548 45.5163C9.37006 45.425 1.84168 40.5178 1.75406 34.6785V32.5107C4.86929 36.9889 11.2108 39.9894 18.8548 39.881C21.4408 39.9894 24.0863 39.5848 26.3092 39.0139L27.1862 36.8462C24.5497 37.6239 21.672 38.1649 18.8548 38.1468C9.37006 38.1649 1.84168 33.2577 1.75406 27.3099V25.5757C4.86929 29.7152 11.1973 32.7166 18.8548 32.5116C22.2997 32.7166 25.6688 32.0004 28.5013 30.7774L28.9403 28.6097C26.1728 30.053 22.5861 30.8912 18.8548 30.7774C9.37006 30.8912 1.84168 25.984 1.75406 19.9405V18.2063C4.86929 22.4425 11.2108 25.443 18.8548 25.5757C23.1994 25.443 27.3181 24.3076 30.6943 22.5409L31.1333 19.9396C28.0686 22.185 23.595 23.632 18.8548 23.8415C9.37006 23.632 1.84258 18.7239 1.75406 12.5711C1.84168 6.7191 9.37006 1.81187 18.8548 1.73419C24.509 1.81187 29.7604 3.77187 32.8874 6.93587L33.1917 7.43716L35.4028 7.44619L35.0795 6.93587C31.9697 2.75755 25.7501 0 18.8548 0C8.36026 0 0 5.71832 0 12.5711V35.112C0.368516 41.8013 8.53819 47.2495 18.8548 47.2495C25.6688 47.2495 31.7926 44.6004 35.0795 40.7481Z" fill="white"/>
        <path d="M30.9768 56L34.5174 41.1248L24.339 45.5L30.5351 19.6876H18.5854L21.6835 7H59.7418L56.6438 19.6876H44.2533L41.5978 26.6876L55.316 21L30.9768 56ZM37.1729 38.0619L35.4026 46.8124L50.006 24.9381L38.0572 30.1885L43.3682 17.9381H55.316L57.5289 8.75045H23.0113L20.7984 17.9381H32.7471L26.9936 42.4381L37.1729 38.0637V38.0619Z" fill="#FABC2C"/>
        <path d="M96.6216 40.6601H98.2161V34.6658H99.6915V33.5013H98.2161V32.8133C98.2161 32.5618 98.2602 32.3501 98.3484 32.1781C98.441 32.0061 98.5733 31.876 98.7454 31.7877C98.9218 31.6951 99.1313 31.6488 99.3739 31.6488C99.493 31.6488 99.6033 31.6532 99.7047 31.662C99.8106 31.6709 99.9076 31.6863 99.9958 31.7083L100.036 30.4777C99.89 30.438 99.74 30.4094 99.5856 30.3917C99.4313 30.3697 99.2747 30.3586 99.1159 30.3586C98.6042 30.3586 98.1609 30.4535 97.786 30.6431C97.4111 30.8284 97.1222 31.1041 96.9193 31.4702C96.7208 31.8319 96.6216 32.2795 96.6216 32.8133V33.5013H95.5233V34.6658H96.6216V40.6601Z" fill="white"/>
        <path d="M77.8804 34.3233V30.4976H76.2925V40.6601H77.8804V35.5494C77.9276 35.4593 77.9805 35.3743 78.0392 35.2943C78.1847 35.0958 78.3656 34.9393 78.5817 34.8246C78.8022 34.7099 79.0559 34.6526 79.3426 34.6526C79.616 34.6526 79.8476 34.6989 80.0373 34.7915C80.2269 34.8797 80.3703 35.0253 80.4673 35.2282C80.5688 35.4311 80.6195 35.7045 80.6195 36.0486V40.6601H82.2206V36.0618C82.2206 35.5722 82.1655 35.1576 82.0552 34.818C81.9493 34.4739 81.7928 34.196 81.5855 33.9843C81.3782 33.7682 81.1311 33.6116 80.8444 33.5146C80.5621 33.4175 80.2446 33.369 79.8917 33.369C79.4727 33.369 79.0911 33.455 78.7471 33.6271C78.4122 33.7902 78.1233 34.0223 77.8804 34.3233Z" fill="white"/>
        <path d="M71.6421 40.6601V32.3501H74.6657V31.0269H66.9976V32.3501H69.9947V40.6601H71.6421Z" fill="white"/>
        <path fill-rule="evenodd" clip-rule="evenodd" d="M87.5193 40.7924C86.9901 40.7924 86.5115 40.7064 86.0836 40.5344C85.6602 40.3579 85.2985 40.1131 84.9986 39.8C84.703 39.4868 84.4759 39.1185 84.3171 38.6951C84.1583 38.2716 84.0789 37.8151 84.0789 37.3255V37.0609C84.0789 36.5007 84.1605 35.9935 84.3237 35.5391C84.4869 35.0848 84.7141 34.6967 85.0052 34.3747C85.2963 34.0483 85.6404 33.7991 86.0373 33.6271C86.4343 33.455 86.8643 33.369 87.3275 33.369C87.8391 33.369 88.2868 33.455 88.6706 33.6271C89.0543 33.7991 89.3719 34.0417 89.6233 34.3548C89.8791 34.6636 90.0688 35.0319 90.1923 35.4597C90.3202 35.8876 90.3842 36.3595 90.3842 36.8756V37.5571H85.688C85.7037 37.7834 85.743 37.9973 85.8058 38.1989C85.894 38.4635 86.0219 38.6951 86.1895 38.8936C86.3571 39.092 86.56 39.2486 86.7982 39.3633C87.0364 39.4736 87.3076 39.5287 87.612 39.5287C87.9957 39.5287 88.3376 39.4515 88.6375 39.2971C88.9374 39.1428 89.1977 38.9244 89.4182 38.6421L90.2585 39.4559C90.1041 39.6809 89.9034 39.897 89.6564 40.1043C89.4094 40.3072 89.1072 40.4726 88.75 40.6005C88.3971 40.7285 87.9869 40.7924 87.5193 40.7924ZM85.7859 36.0618C85.7593 36.1734 85.7377 36.2902 85.7211 36.4125H88.8095V36.2868C88.8007 36.0001 88.7433 35.731 88.6375 35.4796C88.536 35.2282 88.3795 35.0253 88.1677 34.8709C87.956 34.7165 87.6737 34.6393 87.3209 34.6393C87.0562 34.6393 86.8202 34.6967 86.6129 34.8114C86.41 34.9216 86.2402 35.0826 86.1035 35.2943C85.9668 35.5061 85.8609 35.7619 85.7859 36.0618Z" fill="white"/>
        <path d="M104.951 40.5476C105.264 40.3948 105.526 40.1889 105.737 39.9298L105.778 40.6601H107.286V33.5013H105.685V38.6385C105.572 38.8833 105.402 39.083 105.175 39.2376C104.915 39.414 104.558 39.5022 104.104 39.5022C103.945 39.5022 103.795 39.4802 103.654 39.4361C103.513 39.392 103.389 39.317 103.283 39.2111C103.177 39.1053 103.094 38.9663 103.032 38.7943C102.97 38.6179 102.939 38.3995 102.939 38.1393V33.5013H101.345V38.1261C101.345 38.598 101.402 39.0038 101.517 39.3435C101.631 39.6831 101.792 39.9588 102 40.1705C102.211 40.3822 102.463 40.5388 102.754 40.6402C103.045 40.7417 103.365 40.7924 103.713 40.7924C104.194 40.7924 104.606 40.7108 104.951 40.5476Z" fill="white"/>
        <path d="M112.73 34.6658V33.5013H111.453V31.748H109.859V33.5013H108.694V34.6658H109.859V38.7811C109.859 39.2707 109.938 39.6632 110.097 39.9588C110.256 40.2543 110.476 40.4682 110.759 40.6005C111.041 40.7285 111.365 40.7924 111.731 40.7924C111.956 40.7924 112.155 40.777 112.327 40.7461C112.503 40.7152 112.658 40.6799 112.79 40.6402L112.783 39.4229C112.722 39.4361 112.64 39.4493 112.538 39.4625C112.437 39.4758 112.331 39.4824 112.221 39.4824C112.067 39.4824 111.932 39.4625 111.817 39.4229C111.703 39.3832 111.612 39.306 111.546 39.1913C111.484 39.0722 111.453 38.9024 111.453 38.6818V34.6658H112.73Z" fill="white"/>
        <path d="M118.062 40.5476C118.376 40.3948 118.638 40.1889 118.849 39.9298L118.889 40.6601H120.398V33.5013H118.797V38.6385C118.683 38.8833 118.513 39.083 118.287 39.2376C118.027 39.414 117.67 39.5022 117.215 39.5022C117.056 39.5022 116.907 39.4802 116.765 39.4361C116.624 39.392 116.501 39.317 116.395 39.2111C116.289 39.1053 116.205 38.9663 116.143 38.7943C116.082 38.6179 116.051 38.3995 116.051 38.1393V33.5013H114.456V38.1261C114.456 38.598 114.514 39.0038 114.628 39.3435C114.743 39.6831 114.904 39.9588 115.111 40.1705C115.323 40.3822 115.574 40.5388 115.866 40.6402C116.157 40.7417 116.476 40.7924 116.825 40.7924C117.306 40.7924 117.718 40.7108 118.062 40.5476Z" fill="white"/>
        <path d="M124.161 35.7672V40.6601H122.567V33.5013H124.089L124.134 34.3423C124.143 34.3265 124.152 34.3108 124.161 34.2953C124.342 34.0042 124.567 33.777 124.836 33.6138C125.11 33.4506 125.425 33.369 125.782 33.369C125.879 33.369 125.983 33.3778 126.093 33.3955C126.208 33.4131 126.294 33.433 126.351 33.455L126.338 34.9371C126.241 34.9194 126.135 34.9062 126.021 34.8974C125.91 34.8885 125.8 34.8841 125.69 34.8841C125.416 34.8841 125.176 34.9238 124.969 35.0032C124.761 35.0782 124.587 35.1885 124.446 35.334C124.328 35.4555 124.233 35.5999 124.161 35.7672Z" fill="white"/>
        <path fill-rule="evenodd" clip-rule="evenodd" d="M130.903 40.7924C130.373 40.7924 129.895 40.7064 129.467 40.5344C129.043 40.3579 128.682 40.1131 128.382 39.8C128.086 39.4868 127.859 39.1185 127.7 38.6951C127.542 38.2716 127.462 37.8151 127.462 37.3255V37.0609C127.462 36.5007 127.544 35.9935 127.707 35.5391C127.87 35.0848 128.097 34.6967 128.388 34.3747C128.679 34.0483 129.024 33.7991 129.421 33.6271C129.817 33.455 130.248 33.369 130.711 33.369C131.222 33.369 131.67 33.455 132.054 33.6271C132.438 33.7991 132.755 34.0417 133.007 34.3548C133.262 34.6636 133.452 35.0319 133.575 35.4597C133.703 35.8876 133.767 36.3595 133.767 36.8756V37.5571H129.071C129.087 37.7834 129.126 37.9973 129.189 38.1989C129.277 38.4635 129.405 38.6951 129.573 38.8936C129.74 39.092 129.943 39.2486 130.181 39.3633C130.42 39.4736 130.691 39.5287 130.995 39.5287C131.379 39.5287 131.721 39.4515 132.021 39.2971C132.321 39.1428 132.581 38.9244 132.801 38.6421L133.642 39.4559C133.487 39.6809 133.287 39.897 133.04 40.1043C132.793 40.3072 132.49 40.4726 132.133 40.6005C131.78 40.7285 131.37 40.7924 130.903 40.7924ZM129.169 36.0618C129.142 36.1734 129.121 36.2902 129.104 36.4125H132.193V36.2868C132.184 36.0001 132.127 35.731 132.021 35.4796C131.919 35.2282 131.763 35.0253 131.551 34.8709C131.339 34.7165 131.057 34.6393 130.704 34.6393C130.439 34.6393 130.203 34.6967 129.996 34.8114C129.793 34.9216 129.623 35.0826 129.487 35.2943C129.35 35.5061 129.244 35.7619 129.169 36.0618Z" fill="white"/>
        <path fill-rule="evenodd" clip-rule="evenodd" d="M139.138 37.0079V37.1601C139.138 37.6762 139.213 38.1547 139.363 38.5958C139.513 39.0369 139.731 39.4229 140.018 39.7537C140.305 40.0801 140.653 40.3359 141.063 40.5211C141.478 40.702 141.948 40.7924 142.473 40.7924C142.993 40.7924 143.458 40.702 143.869 40.5211C144.279 40.3359 144.627 40.0801 144.914 39.7537C145.201 39.4229 145.419 39.0369 145.569 38.5958C145.719 38.1547 145.794 37.6762 145.794 37.1601V37.0079C145.794 36.4919 145.719 36.0133 145.569 35.5722C145.419 35.1267 145.201 34.7408 144.914 34.4144C144.627 34.0836 144.277 33.8277 143.862 33.6469C143.452 33.4616 142.984 33.369 142.459 33.369C141.939 33.369 141.471 33.4616 141.057 33.6469C140.647 33.8277 140.298 34.0836 140.011 34.4144C139.729 34.7408 139.513 35.1267 139.363 35.5722C139.213 36.0133 139.138 36.4919 139.138 37.0079ZM140.733 37.1601V37.0079C140.733 36.6904 140.766 36.3904 140.832 36.1081C140.898 35.8214 141.002 35.5678 141.143 35.3473C141.284 35.1267 141.463 34.9547 141.679 34.8312C141.899 34.7033 142.159 34.6393 142.459 34.6393C142.759 34.6393 143.017 34.7033 143.233 34.8312C143.454 34.9547 143.635 35.1267 143.776 35.3473C143.922 35.5678 144.027 35.8214 144.094 36.1081C144.164 36.3904 144.199 36.6904 144.199 37.0079V37.1601C144.199 37.4821 144.164 37.7864 144.094 38.0731C144.027 38.3598 143.924 38.6113 143.783 38.8274C143.641 39.0435 143.461 39.2133 143.24 39.3368C143.024 39.4603 142.768 39.5221 142.473 39.5221C142.168 39.5221 141.906 39.4603 141.685 39.3368C141.465 39.2133 141.284 39.0435 141.143 38.8274C141.002 38.6113 140.898 38.3598 140.832 38.0731C140.766 37.7864 140.733 37.4821 140.733 37.1601Z" fill="white"/>
        <path d="M149.816 40.6601H148.221V34.6658H147.123V33.5013H148.221V32.8133C148.221 32.2795 148.32 31.8319 148.519 31.4702C148.722 31.1041 149.011 30.8284 149.386 30.6431C149.761 30.4535 150.204 30.3586 150.716 30.3586C150.874 30.3586 151.031 30.3697 151.185 30.3917C151.34 30.4094 151.49 30.438 151.635 30.4777L151.596 31.7083C151.507 31.6863 151.41 31.6709 151.304 31.662C151.203 31.6532 151.093 31.6488 150.974 31.6488C150.731 31.6488 150.521 31.6951 150.345 31.7877C150.173 31.876 150.041 32.0061 149.948 32.1781C149.86 32.3501 149.816 32.5618 149.816 32.8133V33.5013H151.291V34.6658H149.816V40.6601Z" fill="white"/>
        <path d="M158.475 35.5135V40.6601H156.88V33.5013H158.382L158.433 34.3077C158.666 34.0142 158.951 33.7874 159.288 33.6271C159.646 33.455 160.058 33.369 160.526 33.369C160.852 33.369 161.15 33.4175 161.419 33.5146C161.692 33.6072 161.928 33.755 162.127 33.9579C162.274 34.1054 162.396 34.2831 162.492 34.4912C162.534 34.4307 162.577 34.372 162.623 34.3151C162.861 34.0196 163.155 33.788 163.503 33.6204C163.851 33.4528 164.251 33.369 164.701 33.369C165.067 33.369 165.393 33.4197 165.68 33.5212C165.971 33.6182 166.218 33.7726 166.421 33.9843C166.624 34.196 166.778 34.4717 166.884 34.8114C166.99 35.1466 167.043 35.5524 167.043 36.0287V40.6601H165.442V36.0221C165.442 35.6604 165.389 35.3803 165.283 35.1819C165.181 34.9834 165.036 34.8466 164.846 34.7717C164.656 34.6923 164.429 34.6526 164.165 34.6526C163.918 34.6526 163.699 34.6989 163.51 34.7915C163.324 34.8797 163.168 35.0054 163.04 35.1686C162.914 35.3247 162.818 35.5042 162.752 35.7071C162.754 35.7667 162.755 35.8276 162.755 35.8898V40.6601H161.161V36.0287C161.161 35.6803 161.108 35.4068 161.002 35.2083C160.901 35.0098 160.753 34.8687 160.559 34.7849C160.369 34.6967 160.142 34.6526 159.877 34.6526C159.577 34.6526 159.322 34.7099 159.11 34.8246C158.903 34.9393 158.733 35.0958 158.6 35.2943C158.554 35.3636 158.512 35.4367 158.475 35.5135Z" fill="white"/>
        <path fill-rule="evenodd" clip-rule="evenodd" d="M168.908 37.1601V37.0079C168.908 36.4919 168.983 36.0133 169.133 35.5722C169.283 35.1267 169.499 34.7408 169.781 34.4144C170.068 34.0836 170.416 33.8277 170.826 33.6469C171.241 33.4616 171.708 33.369 172.229 33.369C172.754 33.369 173.221 33.4616 173.632 33.6469C174.046 33.8277 174.397 34.0836 174.684 34.4144C174.97 34.7408 175.189 35.1267 175.339 35.5722C175.489 36.0133 175.564 36.4919 175.564 37.0079V37.1601C175.564 37.6762 175.489 38.1547 175.339 38.5958C175.189 39.0369 174.97 39.4229 174.684 39.7537C174.397 40.0801 174.048 40.3359 173.638 40.5211C173.228 40.702 172.763 40.7924 172.242 40.7924C171.717 40.7924 171.248 40.702 170.833 40.5211C170.423 40.3359 170.074 40.0801 169.788 39.7537C169.501 39.4229 169.283 39.0369 169.133 38.5958C168.983 38.1547 168.908 37.6762 168.908 37.1601ZM170.502 37.0079V37.1601C170.502 37.4821 170.535 37.7864 170.601 38.0731C170.668 38.3598 170.771 38.6113 170.912 38.8274C171.053 39.0435 171.234 39.2133 171.455 39.3368C171.675 39.4603 171.938 39.5221 172.242 39.5221C172.538 39.5221 172.794 39.4603 173.01 39.3368C173.23 39.2133 173.411 39.0435 173.552 38.8274C173.693 38.6113 173.797 38.3598 173.863 38.0731C173.934 37.7864 173.969 37.4821 173.969 37.1601V37.0079C173.969 36.6904 173.934 36.3904 173.863 36.1081C173.797 35.8214 173.691 35.5678 173.546 35.3473C173.404 35.1267 173.224 34.9547 173.003 34.8312C172.787 34.7033 172.529 34.6393 172.229 34.6393C171.929 34.6393 171.669 34.7033 171.448 34.8312C171.232 34.9547 171.053 35.1267 170.912 35.3473C170.771 35.5678 170.668 35.8214 170.601 36.1081C170.535 36.3904 170.502 36.6904 170.502 37.0079Z" fill="white"/>
        <path d="M179.01 35.5725V40.6601H177.415V33.5013H178.917L178.969 34.3641C178.98 34.3499 178.992 34.3357 179.003 34.3218C179.254 34.0174 179.554 33.7836 179.903 33.6204C180.251 33.4528 180.639 33.369 181.067 33.369C181.411 33.369 181.722 33.4175 182 33.5146C182.283 33.6072 182.523 33.7594 182.721 33.9711C182.924 34.1828 183.079 34.4585 183.185 34.7981C183.29 35.1333 183.343 35.5458 183.343 36.0354V40.6601H181.742V36.0287C181.742 35.6847 181.691 35.4134 181.59 35.2149C181.493 35.012 181.35 34.8687 181.16 34.7849C180.975 34.6967 180.743 34.6526 180.465 34.6526C180.192 34.6526 179.947 34.7099 179.731 34.8246C179.515 34.9393 179.332 35.0958 179.182 35.2943C179.118 35.3812 179.061 35.4739 179.01 35.5725Z" fill="white"/>
        <path fill-rule="evenodd" clip-rule="evenodd" d="M188.655 40.7924C188.126 40.7924 187.647 40.7064 187.22 40.5344C186.796 40.3579 186.434 40.1131 186.135 39.8C185.839 39.4868 185.612 39.1185 185.453 38.6951C185.294 38.2716 185.215 37.8151 185.215 37.3255V37.0609C185.215 36.5007 185.296 35.9935 185.46 35.5391C185.623 35.0848 185.85 34.6967 186.141 34.3747C186.432 34.0483 186.776 33.7991 187.173 33.6271C187.57 33.455 188 33.369 188.463 33.369C188.975 33.369 189.423 33.455 189.807 33.6271C190.19 33.7991 190.508 34.0417 190.759 34.3548C191.015 34.6636 191.205 35.0319 191.328 35.4597C191.456 35.8876 191.52 36.3595 191.52 36.8756V37.5571H186.824C186.84 37.7834 186.879 37.9973 186.942 38.1989C187.03 38.4635 187.158 38.6951 187.325 38.8936C187.493 39.092 187.696 39.2486 187.934 39.3633C188.172 39.4736 188.444 39.5287 188.748 39.5287C189.132 39.5287 189.473 39.4515 189.773 39.2971C190.073 39.1428 190.334 38.9244 190.554 38.6421L191.394 39.4559C191.24 39.6809 191.039 39.897 190.792 40.1043C190.545 40.3072 190.243 40.4726 189.886 40.6005C189.533 40.7285 189.123 40.7924 188.655 40.7924ZM186.922 36.0618C186.895 36.1734 186.874 36.2902 186.857 36.4125H189.945V36.2868C189.937 36.0001 189.879 35.731 189.773 35.4796C189.672 35.2282 189.515 35.0253 189.304 34.8709C189.092 34.7165 188.81 34.6393 188.457 34.6393C188.192 34.6393 187.956 34.6967 187.749 34.8114C187.546 34.9216 187.376 35.0826 187.239 35.2943C187.103 35.5061 186.997 35.7619 186.922 36.0618Z" fill="white"/>
        <path d="M194.994 40.6423L192.459 33.5013H194.179L195.731 38.3923L197.222 33.5013H198.929L196.058 41.7518C195.992 41.9282 195.906 42.1201 195.8 42.3274C195.694 42.5347 195.555 42.731 195.383 42.9162C195.215 43.1059 195.006 43.258 194.755 43.3727C194.503 43.4918 194.199 43.5514 193.842 43.5514C193.7 43.5514 193.564 43.5381 193.431 43.5117C193.303 43.4896 193.182 43.4654 193.067 43.4389L193.061 42.2215C193.105 42.2259 193.158 42.2303 193.22 42.2347C193.286 42.2392 193.339 42.2414 193.378 42.2414C193.643 42.2414 193.864 42.2083 194.04 42.1421C194.216 42.0804 194.36 41.9789 194.47 41.8378C194.585 41.6966 194.682 41.507 194.761 41.2688L194.994 40.6423Z" fill="white"/>
    </g>
    <defs>
        <clipPath id="clip0_8079_1840">
            <rect width="238" height="56" fill="white"/>
        </clipPath>
    </defs>
</svg>
