<svg xmlns="http://www.w3.org/2000/svg" width="180" height="30" viewBox="0 0 180 30" role="img" aria-label="Kerouš">
  <g transform="matrix(0.15944769,0,0,0.15944769,48.159579,111.28991)">
    <path
       d="m -248.44812,-524.30199 v -160.47879 h -53.49467 l 10e-4,160.47879 z"
       style="fill:#fff30a;fill-opacity:1;fill-rule:nonzero;stroke:none;stroke-width:1.33333"
       id="path853" />
    <path
       d="m -194.95732,-524.30359 v -160.47799 h -53.4908 v 160.47959 l 53.4908,-10e-4 z"
       style="fill:#fbc707;fill-opacity:1;fill-rule:nonzero;stroke:none;stroke-width:1.33333"
       id="path855" />
    <path
       d="m -141.46679,-524.30199 v -160.47879 h -53.4908 v 160.47719 l 53.4908,10e-4 z"
       style="fill:#fff30a;fill-opacity:1;fill-rule:nonzero;stroke:none;stroke-width:1.33333"
       id="path857_ignore" />
    <path
       d="m -141.46679,-524.30199 v -160.47879 h -53.4908 v 160.47719 l 53.4908,10e-4 z"
       style="fill:#f46e26;fill-opacity:1;fill-rule:nonzero;stroke:none;stroke-width:1.33333"
       id="path859" />
    <path
       d="m 18.779203,-524.19852 -65.800531,-85.55 62.426932,-75.18533 h -51.098132 l -49.411999,66.02866 v -66.02866 h -41.425863 v 160.73533 h 41.425863 v -46.9924 l 10.846399,-13.49507 42.180399,60.48747 z"
       style="fill:#000000;fill-opacity:1;fill-rule:nonzero;stroke:none;stroke-width:1.33333"
       id="path861" />
    <path
       d="M 149.05387,-684.93465 H 31.220936 v 36.03147 H 149.05387 Z m -117.832934,61.22266 v 99.5128 H 149.05387 v -36.124 H 72.648802 v -27.26666 h 74.718928 v -36.12214 z"
       style="fill:#000000;fill-opacity:1;fill-rule:nonzero;stroke:none;stroke-width:1.33333"
       id="path863" />
    <path
       d="m 312.68586,-631.44105 c 0,-29.89187 -20.23226,-53.494 -55.89706,-53.494 H 176.294 v 36.03187 h 16.3608 41.40213 27.50213 c 12.2324,0 12.2324,12.23053 12.2324,12.23053 v 0.7268 c 0,12.232 -12.2324,12.232 -12.2324,12.232 H 234.05693 204.8888 177.38667 c -0.41387,0 -0.7076,-0.11414 -1.09267,-0.1424 v 36.25133 l 55.6184,10e-4 34.04066,63.40347 h 47.45654 l -32.7572,-59.0472 c 15.17333,-5.29773 32.03346,-20.23 32.03346,-48.19427"
       style="fill:#000000;fill-opacity:1;fill-rule:nonzero;stroke:none;stroke-width:1.33333"
       id="path865" />
    <path
       d="m 497.81839,-604.44692 c 0,-48.94146 -36.6096,-83.13973 -85.7896,-83.13973 -49.18146,0 -86.03373,34.19827 -86.03373,83.13973 0,48.94227 36.85227,83.13973 86.03373,83.13973 49.18,0 85.7896,-34.19746 85.7896,-83.13973 z m -42.14893,0 c 0,26.03947 -17.11973,46.5332 -43.64067,46.5332 -26.5236,0 -43.88373,-20.49373 -43.88373,-46.5332 0,-26.27907 17.36013,-46.5324 43.88373,-46.5324 26.52094,0 43.64067,20.25333 43.64067,46.5324"
       style="fill:#000000;fill-opacity:1;fill-rule:nonzero;stroke:none;stroke-width:1.33333"
       id="path867" />
    <path
       d="m 603.06959,-558.74492 c -2.67253,0.5084 -5.5008,0.8316 -8.586,0.8316 -22.42507,0 -34.00027,-13.73827 -34.00027,-32.7792 v -94.24253 h -42.15 v 95.68746 c 0,39.52294 24.56734,67.9416 76.15027,67.9416 3.0656,0 5.71467,-0.41693 8.586,-0.61226 z"
       style="fill:#000000;fill-opacity:1;fill-rule:nonzero;stroke:none;stroke-width:1.33333"
       id="path869" />
    <path
       d="m 817.29732,-648.69385 v -27.3052 l -0.0385,0.004 v -9.0172 h -26.39853 l -11.5196,18.00987 h -38.20346 l -11.2864,-17.184 c -21.09814,3.4408 -34.4164,17.3332 -38.44467,35.492 h 125.8912 z m -122.54547,91.92266 h -0.0383 v 32.56627 h 81.61439 c 28.814,0 46.33707,-17.13333 49.68947,-40.0788 0.22333,-1.35653 0.25133,-2.86987 0.37267,-4.31067 0.0857,-1.2884 0.33106,-2.51866 0.33106,-3.838 0,-0.0873 -0.02,-0.16146 -0.02,-0.25026 0.004,-0.26987 0.0593,-0.49814 0.0593,-0.76947 0,-54.8788 -50.49787,-50.25947 -50.49787,-50.25947 h -84.6384 c 4.71347,20.91747 21.6676,36.17387 48.79027,36.17387 h 34.24293 c 7.88027,1.25747 13.76013,6.31373 14.0092,14.78973 -0.49173,9.59814 -8.27147,14.736 -17.9524,14.736 h -75.9624 z"
       style="fill:#000000;fill-opacity:1;fill-rule:nonzero;stroke:none;stroke-width:1.33333"
       id="path871" />
    <path
       d="m 670.15159,-589.24639 v -95.68826 h -42.09894 v 158.39213 c 28.38,-9.9308 42.09894,-33.2096 42.09894,-62.70387"
       style="fill:#000000;fill-opacity:1;fill-rule:nonzero;stroke:none;stroke-width:1.33333"
       id="path873" />
    <path
       d="m 728.75585,-697.97132 15.97147,24.31667 h 30.97106 l 15.55347,-24.31667 h -22.80453 l -3.388,5.29814 h -9.97533 l -3.48014,-5.29814 z"
       style="fill:#000000;fill-opacity:1;fill-rule:nonzero;stroke:none;stroke-width:1.33333"
       id="path875" />
    <path
       d="m -248.44812,-524.30199 v -160.47879 h -53.49467 l 10e-4,160.47879 z"
       style="fill:#fff30a;fill-opacity:1;fill-rule:nonzero;stroke:none;stroke-width:1.33333"
       id="path877" />
    <path
       d="m -194.95732,-524.30359 v -160.47799 h -53.4908 v 160.47959 l 53.4908,-10e-4 z"
       style="fill:#fbc707;fill-opacity:1;fill-rule:nonzero;stroke:none;stroke-width:1.33333"
       id="path879" />
    <path
       d="m -141.46679,-524.30199 v -160.47879 h -53.4908 v 160.47719 l 53.4908,10e-4 z"
       style="fill:#fff30a;fill-opacity:1;fill-rule:nonzero;stroke:none;stroke-width:1.33333"
       id="path881" />
    <path
       d="m -141.46679,-524.30199 v -160.47879 h -53.4908 v 160.47719 l 53.4908,10e-4 z"
       style="fill:#f46e26;fill-opacity:1;fill-rule:nonzero;stroke:none;stroke-width:1.33333"
       id="path883" />
    <path
       d="m 18.779203,-524.19852 -65.800531,-85.55 62.426932,-75.18533 h -51.098132 l -49.411999,66.02866 v -66.02866 h -41.425863 v 160.73533 h 41.425863 v -46.9924 l 10.846399,-13.49507 42.180399,60.48747 z"
       style="fill:#000000;fill-opacity:1;fill-rule:nonzero;stroke:none;stroke-width:1.33333"
       id="path885" />
    <path
       d="M 149.05387,-684.93465 H 31.220936 v 36.03147 H 149.05387 Z m -117.832934,61.22266 v 99.5128 H 149.05387 v -36.124 H 72.648802 v -27.26666 h 74.718928 v -36.12214 z"
       style="fill:#000000;fill-opacity:1;fill-rule:nonzero;stroke:none;stroke-width:1.33333"
       id="path887" />
    <path
       d="m 312.68586,-631.44105 c 0,-29.89187 -20.23226,-53.494 -55.89706,-53.494 H 176.294 v 36.03187 h 16.3608 41.40213 27.50213 c 12.2324,0 12.2324,12.23053 12.2324,12.23053 v 0.7268 c 0,12.232 -12.2324,12.232 -12.2324,12.232 H 234.05693 204.8888 177.38667 c -0.41387,0 -0.7076,-0.11414 -1.09267,-0.1424 v 36.25133 l 55.6184,10e-4 34.04066,63.40347 h 47.45654 l -32.7572,-59.0472 c 15.17333,-5.29773 32.03346,-20.23 32.03346,-48.19427"
       style="fill:#000000;fill-opacity:1;fill-rule:nonzero;stroke:none;stroke-width:1.33333"
       id="path889" />
    <path
       d="m 497.81839,-604.44692 c 0,-48.94146 -36.6096,-83.13973 -85.7896,-83.13973 -49.18146,0 -86.03373,34.19827 -86.03373,83.13973 0,48.94227 36.85227,83.13973 86.03373,83.13973 49.18,0 85.7896,-34.19746 85.7896,-83.13973 z m -42.14893,0 c 0,26.03947 -17.11973,46.5332 -43.64067,46.5332 -26.5236,0 -43.88373,-20.49373 -43.88373,-46.5332 0,-26.27907 17.36013,-46.5324 43.88373,-46.5324 26.52094,0 43.64067,20.25333 43.64067,46.5324"
       style="fill:#000000;fill-opacity:1;fill-rule:nonzero;stroke:none;stroke-width:1.33333"
       id="path891" />
    <path
       d="m 603.06959,-558.74492 c -2.67253,0.5084 -5.5008,0.8316 -8.586,0.8316 -22.42507,0 -34.00027,-13.73827 -34.00027,-32.7792 v -94.24253 h -42.15 v 95.68746 c 0,39.52294 24.56734,67.9416 76.15027,67.9416 3.0656,0 5.71467,-0.41693 8.586,-0.61226 z"
       style="fill:#000000;fill-opacity:1;fill-rule:nonzero;stroke:none;stroke-width:1.33333"
       id="path893" />
    <path
       d="m 817.29732,-648.69385 v -27.3052 l -0.0385,0.004 v -9.0172 h -26.39853 l -11.5196,18.00987 h -38.20346 l -11.2864,-17.184 c -21.09814,3.4408 -34.4164,17.3332 -38.44467,35.492 h 125.8912 z m -122.54547,91.92266 h -0.0383 v 32.56627 h 81.61439 c 28.814,0 46.33707,-17.13333 49.68947,-40.0788 0.22333,-1.35653 0.25133,-2.86987 0.37267,-4.31067 0.0857,-1.2884 0.33106,-2.51866 0.33106,-3.838 0,-0.0873 -0.02,-0.16146 -0.02,-0.25026 0.004,-0.26987 0.0593,-0.49814 0.0593,-0.76947 0,-54.8788 -50.49787,-50.25947 -50.49787,-50.25947 h -84.6384 c 4.71347,20.91747 21.6676,36.17387 48.79027,36.17387 h 34.24293 c 7.88027,1.25747 13.76013,6.31373 14.0092,14.78973 -0.49173,9.59814 -8.27147,14.736 -17.9524,14.736 h -75.9624 z"
       style="fill:#000000;fill-opacity:1;fill-rule:nonzero;stroke:none;stroke-width:1.33333"
       id="path895" />
    <path
       d="m 670.15159,-589.24639 v -95.68826 h -42.09894 v 158.39213 c 28.38,-9.9308 42.09894,-33.2096 42.09894,-62.70387"
       style="fill:#000000;fill-opacity:1;fill-rule:nonzero;stroke:none;stroke-width:1.33333"
       id="path897" />
    <path
       d="m 728.75585,-697.97132 15.97147,24.31667 h 30.97106 l 15.55347,-24.31667 h -22.80453 l -3.388,5.29814 h -9.97533 l -3.48014,-5.29814 z"
       style="fill:#000000;fill-opacity:1;fill-rule:nonzero;stroke:none;stroke-width:1.33333"
       id="path899" />
    
  </g>
</svg>
