<svg width="647" height="115" viewBox="0 0 647 115" fill="none" xmlns="http://www.w3.org/2000/svg">
<path d="M61.1517 36.716L69.1584 111.341H60.8006C55.3976 111.341 50.5332 108.29 48.4929 103.602C42.3796 89.5682 34.8791 71.1758 29.0231 56.594C21.1144 52.6656 13.4709 48.8872 9.07582 46.7526C5.71319 45.1209 0 40.6405 0 35.385V0H2.47708C2.47708 0 8.48818 18.8146 10.9938 24.748C12.7568 28.928 19.3555 30.5474 24.1057 31.1804L59.9028 36.5902V36.6066C60.7069 36.6756 61.1517 36.716 61.1517 36.716ZM135.538 24.748C133.775 28.928 127.176 30.5474 122.426 31.1804L86.6284 36.5902V36.6066C85.8245 36.6756 85.3797 36.716 85.3797 36.716L77.373 111.341H85.7306C91.1336 111.341 95.998 108.29 98.0385 103.602C104.152 89.5682 111.652 71.1758 117.508 56.5982C125.417 52.6695 133.06 48.8913 137.455 46.7565C140.818 45.1209 146.535 40.6447 146.535 35.385V0H144.058C144.058 0 138.047 18.8146 135.542 24.748H135.538Z" fill="#161512"/>
<path d="M225.68 89.5891C231.435 89.5891 234.235 87.7331 234.235 84.0207V45.9697H244.033V84.0207C244.033 92.6829 237.969 97.1686 225.68 97.1686H198.306C186.019 97.1686 179.953 92.6829 179.953 83.8662V45.9697H189.752V83.8662C189.752 87.5783 192.552 89.5891 198.306 89.5891H225.68Z" fill="#161512"/>
<path d="M253.377 45.9697H262.398L292.881 87.7331L323.367 45.9697H331.766V97.1686H322.434V61.5922L296.615 97.1686H288.681L262.709 61.5922V97.1686H253.377V45.9697Z" fill="#161512"/>
<path d="M341.232 45.9697H351.031V97.1686H341.232V45.9697Z" fill="#161512"/>
<path d="M370 58.1893V97.1686H360.824V45.9697H368.444L419.616 85.2581V45.9697H428.792V97.1686H421.172L370 58.1893Z" fill="#161512"/>
<path d="M511.553 97.1686V45.9697H552.302C564.59 45.9697 570.654 49.682 570.654 56.9521V63.1391C570.654 69.3264 566.455 72.8838 557.902 73.9666L570.033 97.0139H559.613L547.479 74.1213H521.04V97.1686H511.553ZM521.352 53.5489V66.8515H552.302C558.058 66.8515 560.858 65.614 560.858 63.2938V57.1065C560.858 54.7863 558.058 53.5489 552.302 53.5489H521.352Z" fill="#161512"/>
<path d="M624.646 66.0782C636.933 66.0782 643 69.7903 643 77.0603V86.1864C643 93.4562 636.933 97.0139 624.646 97.0139H580.787V89.4347H624.646C630.401 89.4347 633.201 88.3519 633.201 86.0317V76.9056C633.201 74.5854 630.401 73.348 624.646 73.348H597.271C584.987 73.348 578.92 69.6356 578.92 62.3658V56.9521C578.92 49.5273 584.987 45.9697 597.271 45.9697H639.733V53.5489H597.271C591.519 53.5489 588.719 54.7863 588.719 57.1065V62.6752C588.719 64.9952 591.519 66.2326 597.271 66.2326H624.646V66.0782Z" fill="#161512"/>
<path d="M504.067 45.9697H436.877V53.5489H504.067V45.9697Z" fill="#161512"/>
<path d="M504.067 66.8584H436.877V74.4376H504.067V66.8584Z" fill="#161512"/>
<path d="M504.067 89.5928H436.877V97.1722H504.067V89.5928Z" fill="#161512"/>
</svg>
