<svg xmlns="http://www.w3.org/2000/svg" viewBox="0 0 686 686" width="686" height="686" fill="none">
  <title>Fluidity AI Icon</title>
  <desc>Standalone black nested geometric F icon inset on a white background.</desc>
  <rect width="686" height="686" rx="150" fill="#ffffff"/>
  <g fill="#000000" transform="translate(103 103) scale(0.7)">
    <path d="M 639.0 41.0 L 637.0 40.0 L 626.0 40.0 L 625.0 41.0 L 618.0 41.0 L 617.0 40.0 L 560.0 40.0 L 559.0 41.0 L 558.0 40.0 L 547.0 40.0 L 546.0 41.0 L 534.0 41.0 L 533.0 40.0 L 528.0 40.0 L 527.0 41.0 L 526.0 40.0 L 494.0 40.0 L 493.0 41.0 L 489.0 41.0 L 488.0 40.0 L 480.0 40.0 L 479.0 41.0 L 474.0 41.0 L 473.0 40.0 L 471.0 41.0 L 470.0 40.0 L 437.0 40.0 L 436.0 41.0 L 434.0 40.0 L 432.0 41.0 L 428.0 41.0 L 427.0 40.0 L 395.0 40.0 L 394.0 41.0 L 391.0 41.0 L 390.0 40.0 L 380.0 40.0 L 379.0 41.0 L 366.0 41.0 L 365.0 40.0 L 342.0 40.0 L 341.0 41.0 L 337.0 41.0 L 336.0 40.0 L 323.0 40.0 L 322.0 41.0 L 314.0 41.0 L 313.0 40.0 L 261.0 40.0 L 260.0 41.0 L 258.0 40.0 L 256.0 41.0 L 251.0 41.0 L 250.0 40.0 L 214.0 40.0 L 213.0 41.0 L 208.0 41.0 L 207.0 40.0 L 154.0 40.0 L 153.0 41.0 L 139.0 41.0 L 138.0 40.0 L 106.0 40.0 L 105.0 41.0 L 97.0 41.0 L 96.0 42.0 L 92.0 42.0 L 91.0 43.0 L 86.0 44.0 L 83.0 46.0 L 81.0 46.0 L 72.0 51.0 L 60.0 62.0 L 60.0 63.0 L 55.0 69.0 L 49.0 81.0 L 49.0 83.0 L 47.0 87.0 L 47.0 90.0 L 46.0 91.0 L 46.0 96.0 L 45.0 97.0 L 45.0 611.0 L 46.0 612.0 L 46.0 615.0 L 47.0 616.0 L 47.0 618.0 L 48.0 619.0 L 49.0 623.0 L 51.0 625.0 L 53.0 629.0 L 61.0 637.0 L 70.0 642.0 L 72.0 642.0 L 76.0 644.0 L 79.0 644.0 L 80.0 645.0 L 86.0 645.0 L 87.0 646.0 L 129.0 646.0 L 131.0 644.0 L 131.0 161.0 L 132.0 160.0 L 133.0 152.0 L 137.0 145.0 L 145.0 138.0 L 149.0 136.0 L 154.0 135.0 L 155.0 134.0 L 637.0 134.0 L 639.0 133.0 L 639.0 106.0 L 640.0 105.0 L 639.0 104.0 L 639.0 87.0 L 640.0 86.0 L 639.0 85.0 L 640.0 83.0 L 640.0 79.0 L 639.0 78.0 Z"/>
    <path d="M 640.0 205.0 L 242.0 205.0 L 241.0 206.0 L 237.0 206.0 L 236.0 207.0 L 231.0 208.0 L 223.0 212.0 L 221.0 214.0 L 220.0 214.0 L 209.0 225.0 L 208.0 228.0 L 206.0 230.0 L 203.0 236.0 L 203.0 238.0 L 201.0 242.0 L 201.0 247.0 L 200.0 248.0 L 200.0 644.0 L 202.0 646.0 L 283.0 646.0 L 285.0 644.0 L 285.0 317.0 L 286.0 316.0 L 287.0 310.0 L 290.0 306.0 L 290.0 305.0 L 299.0 297.0 L 303.0 296.0 L 304.0 295.0 L 307.0 295.0 L 308.0 294.0 L 640.0 294.0 L 641.0 293.0 L 641.0 206.0 Z"/>
    <path d="M 641.0 367.0 L 640.0 366.0 L 392.0 366.0 L 391.0 367.0 L 387.0 367.0 L 386.0 368.0 L 381.0 369.0 L 375.0 372.0 L 368.0 378.0 L 367.0 378.0 L 367.0 379.0 L 361.0 385.0 L 356.0 395.0 L 356.0 397.0 L 354.0 401.0 L 354.0 405.0 L 353.0 406.0 L 353.0 644.0 L 355.0 646.0 L 388.0 646.0 L 389.0 645.0 L 397.0 645.0 L 398.0 644.0 L 401.0 644.0 L 402.0 643.0 L 407.0 642.0 L 410.0 640.0 L 412.0 640.0 L 414.0 638.0 L 420.0 635.0 L 429.0 626.0 L 429.0 625.0 L 432.0 622.0 L 433.0 619.0 L 435.0 617.0 L 435.0 615.0 L 437.0 612.0 L 437.0 610.0 L 439.0 606.0 L 439.0 602.0 L 440.0 601.0 L 440.0 475.0 L 441.0 474.0 L 441.0 471.0 L 442.0 470.0 L 443.0 466.0 L 449.0 459.0 L 456.0 455.0 L 458.0 455.0 L 459.0 454.0 L 466.0 454.0 L 467.0 453.0 L 469.0 454.0 L 479.0 454.0 L 480.0 453.0 L 491.0 453.0 L 492.0 454.0 L 520.0 454.0 L 521.0 453.0 L 523.0 454.0 L 524.0 453.0 L 525.0 454.0 L 587.0 454.0 L 588.0 453.0 L 596.0 453.0 L 597.0 452.0 L 600.0 452.0 L 601.0 451.0 L 607.0 450.0 L 615.0 446.0 L 621.0 441.0 L 622.0 441.0 L 629.0 434.0 L 629.0 433.0 L 634.0 427.0 L 637.0 421.0 L 637.0 419.0 L 638.0 418.0 L 638.0 416.0 L 640.0 412.0 L 640.0 408.0 L 641.0 407.0 Z"/>
  </g>
</svg>
